<svg xmlns="http://www.w3.org/2000/svg" viewBox="0 0 1200 800" width="100%" height="100%">
<defs>
<!-- Background Checkerboard Pattern -->
<pattern id="checker" width="40" height="40" patternUnits="userSpaceOnUse">
<rect width="40" height="40" fill="#222222"/>
<rect width="20" height="20" fill="#2a2a2a"/>
<rect x="20" y="20" width="20" height="20" fill="#2a2a2a"/>
</pattern>

code
Code
download
content_copy
expand_less
<!-- Red Sports Car (OutRun Ferrari style) -->
    <g id="ferrari">
        <!-- Tires -->
        <rect x="-38" y="12" width="18" height="14" rx="2" fill="#111"/>
        <rect x="20" y="12" width="18" height="14" rx="2" fill="#111"/>
        <!-- Lower body -->
        <path d="M -45 -2 L 45 -2 L 40 18 L -40 18 Z" fill="#d21f3c"/>
        <!-- Grill / Taillight area -->
        <rect x="-40" y="2" width="80" height="8" fill="#1a1a1a"/>
        <rect x="-35" y="4" width="15" height="4" fill="#ff0000"/>
        <rect x="20" y="4" width="15" height="4" fill="#ff0000"/>
        <rect x="-15" y="4" width="30" height="4" fill="#ff6600"/>
        <!-- Exhaust -->
        <circle cx="-25" cy="15" r="2" fill="#ccc"/>
        <circle cx="25" cy="15" r="2" fill="#ccc"/>
        <!-- Cabin -->
        <path d="M -22 -18 L 22 -18 L 35 -2 L -35 -2 Z" fill="#d21f3c"/>
        <!-- Rear Window -->
        <path d="M -18 -15 L 18 -15 L 28 -4 L -28 -4 Z" fill="#111"/>
        <line x1="-18" y1="-15" x2="-28" y2="-4" stroke="#d21f3c" stroke-width="1"/>
        <line x1="18" y1="-15" x2="28" y2="-4" stroke="#d21f3c" stroke-width="1"/>
    </g>

    <!-- Blue Sports Car -->
    <g id="blue-ferrari">
        <!-- Tires -->
        <rect x="-38" y="12" width="18" height="14" rx="2" fill="#111"/>
        <rect x="20" y="12" width="18" height="14" rx="2" fill="#111"/>
        <!-- Lower body -->
        <path d="M -45 -2 L 45 -2 L 40 18 L -40 18 Z" fill="#1e90ff"/>
        <!-- Grill / Taillight area -->
        <rect x="-40" y="2" width="80" height="8" fill="#1a1a1a"/>
        <rect x="-35" y="4" width="15" height="4" fill="#ff0000"/>
        <rect x="20" y="4" width="15" height="4" fill="#ff0000"/>
        <rect x="-15" y="4" width="30" height="4" fill="#ffa500"/>
        <!-- Exhaust -->
        <circle cx="-25" cy="15" r="2" fill="#ccc"/>
        <circle cx="25" cy="15" r="2" fill="#ccc"/>
        <!-- Cabin -->
        <path d="M -22 -18 L 22 -18 L 35 -2 L -35 -2 Z" fill="#1e90ff"/>
        <!-- Rear Window -->
        <path d="M -18 -15 L 18 -15 L 28 -4 L -28 -4 Z" fill="#111"/>
        <line x1="-18" y1="-15" x2="-28" y2="-4" stroke="#1e90ff" stroke-width="1"/>
        <line x1="18" y1="-15" x2="28" y2="-4" stroke="#1e90ff" stroke-width="1"/>
    </g>

    <!-- Palm Frond -->
    <path id="frond" d="M 0 0 Q -30 -30 -60 -10 Q -30 -15 0 0" fill="#32cd32"/>
</defs>

<!-- Background -->
<rect width="100%" height="100%" fill="url(#checker)"/>

<!-- ========================================== -->
<!-- TOP SECTION                                -->
<!-- ========================================== -->

<!-- Tall Curved Palm Tree -->
<g transform="translate(100, 200)">
    <path d="M -10 0 Q -30 -80 15 -140 L 5 -140 Q -40 -80 -20 0 Z" fill="#8b4513"/>
    <g transform="translate(10, -135)">
        <use href="#frond" transform="rotate(0)" />
        <use href="#frond" transform="rotate(45)" />
        <use href="#frond" transform="rotate(90)" />
        <use href="#frond" transform="rotate(135)" />
        <use href="#frond" transform="rotate(180)" />
        <use href="#frond" transform="rotate(225)" />
        <use href="#frond" transform="rotate(270)" />
        <use href="#frond" transform="rotate(315)" />
        <!-- Coconuts -->
        <circle cx="-5" cy="5" r="6" fill="#5c3a21"/>
        <circle cx="5" cy="8" r="6" fill="#5c3a21"/>
        <circle cx="0" cy="12" r="6" fill="#5c3a21"/>
    </g>
</g>

<!-- SNAKES Billboard -->
<g transform="translate(280, 180)">
    <!-- Stilts -->
    <rect x="-45" y="0" width="10" height="60" fill="#666"/>
    <rect x="35" y="0" width="10" height="60" fill="#666"/>
    <!-- Board -->
    <rect x="-80" y="-70" width="160" height="80" fill="#ffd700" stroke="#b8860b" stroke-width="4"/>
    <!-- Text -->
    <text x="0" y="-35" font-family="sans-serif" font-weight="900" font-size="28" fill="#ff4500" text-anchor="middle" letter-spacing="2">SNAKES</text>
    <!-- Winding Track Line -->
    <path d="M -60 -15 Q -30 -40 0 -15 T 60 -15" fill="none" stroke="#222" stroke-width="5" stroke-linecap="round"/>
</g>

<!-- Bushy Deciduous Tree -->
<g transform="translate(500, 200)">
    <rect x="-15" y="-60" width="30" height="70" fill="#654321"/>
    <circle cx="0" cy="-100" r="45" fill="#228b22"/>
    <circle cx="-35" cy="-60" r="40" fill="#228b22"/>
    <circle cx="35" cy="-60" r="40" fill="#228b22"/>
    <circle cx="0" cy="-40" r="30" fill="#2e8b57"/>
</g>

<!-- Castle Turret -->
<g transform="translate(700, 200)">
    <rect x="-30" y="-140" width="60" height="150" fill="#778899" stroke="#2f4f4f" stroke-width="2"/>
    <!-- Crenellations -->
    <rect x="-35" y="-155" width="15" height="15" fill="#778899" stroke="#2f4f4f" stroke-width="2"/>
    <rect x="-10" y="-155" width="20" height="15" fill="#778899" stroke="#2f4f4f" stroke-width="2"/>
    <rect x="20" y="-155" width="15" height="15" fill="#778899" stroke="#2f4f4f" stroke-width="2"/>
    <!-- Stone lines / Windows -->
    <rect x="-5" y="-100" width="10" height="25" fill="#111"/>
    <rect x="-5" y="-50" width="10" height="25" fill="#111"/>
    <line x1="-30" y1="-80" x2="30" y2="-80" stroke="#556b2f" stroke-width="1" opacity="0.5"/>
    <line x1="-30" y1="-30" x2="30" y2="-30" stroke="#556b2f" stroke-width="1" opacity="0.5"/>
</g>

<!-- Blossoming Tree -->
<g transform="translate(880, 200)">
    <path d="M -10 0 L 10 0 L 5 -70 L -5 -70 Z" fill="#5c4033"/>
    <circle cx="0" cy="-90" r="35" fill="#ffb6c1"/>
    <circle cx="-25" cy="-65" r="30" fill="#ff69b4"/>
    <circle cx="25" cy="-65" r="30" fill="#fff"/>
    <circle cx="-15" cy="-40" r="20" fill="#2e8b57"/>
    <circle cx="15" cy="-40" r="20" fill="#2e8b57"/>
    <circle cx="0" cy="-100" r="10" fill="#fff"/>
    <circle cx="-30" cy="-80" r="15" fill="#fff"/>
</g>


<!-- ========================================== -->
<!-- MIDDLE SECTION                             -->
<!-- ========================================== -->

<!-- Tall Bare Dead Tree -->
<g transform="translate(90, 420)">
    <path d="M 0 0 Q -5 -60 0 -120 M 0 -120 L -30 -160 M -15 -140 L -5 -180 M 0 -120 L 25 -170 M 10 -140 L 35 -130 M 0 -60 L -40 -80 M -20 -70 L -30 -50 M 0 -80 L 30 -100" stroke="#4a3c31" stroke-width="8" fill="none" stroke-linecap="square"/>
</g>

<!-- Jagged Rock Wall -->
<g transform="translate(200, 420)">
    <polygon points="-70,0 -50,-80 -20,-110 10,-70 40,-120 70,-60 90,0" fill="#8b4513" stroke="#5c4033" stroke-width="3"/>
    <polygon points="-40,0 -30,-40 -10,-60 10,-30 30,-70 50,-40 70,0" fill="#a0522d"/>
</g>

<!-- Redmond Billboard -->
<g transform="translate(380, 420)">
    <rect x="-35" y="0" width="8" height="60" fill="#555"/>
    <rect x="27" y="0" width="8" height="60" fill="#555"/>
    <rect x="-70" y="-70" width="140" height="70" fill="#f0f8ff" stroke="#2f4f4f" stroke-width="4"/>
    <!-- Tree / Road Logo -->
    <circle cx="-40" cy="-45" r="16" fill="#228b22"/>
    <path d="M -50 -25 Q -40 -45 -30 -25" fill="none" stroke="#555" stroke-width="4"/>
    <!-- Text -->
    <text x="15" y="-45" font-family="sans-serif" font-size="12" fill="#333" text-anchor="middle">City of Redmond</text>
    <text x="15" y="-25" font-family="sans-serif" font-weight="bold" font-size="14" fill="#333" text-anchor="middle">WASHINGTON</text>
</g>

<!-- LiquidPlanner Billboard -->
<g transform="translate(560, 420)">
    <rect x="-35" y="0" width="8" height="60" fill="#555"/>
    <rect x="27" y="0" width="8" height="60" fill="#555"/>
    <rect x="-70" y="-70" width="140" height="70" fill="#1a1a1a" stroke="#444" stroke-width="3"/>
    <!-- Text -->
    <text x="0" y="-45" font-family="sans-serif" font-weight="bold" font-size="14" fill="#fff" text-anchor="middle">LiquidPlanner</text>
    <!-- Gantt Chart -->
    <rect x="-50" y="-30" width="40" height="6" fill="#1e90ff"/>
    <rect x="-10" y="-20" width="50" height="6" fill="#32cd32"/>
    <rect x="20" y="-10" width="40" height="6" fill="#ff4500"/>
</g>

<!-- Diving School Sign (Slightly Above LiquidPlanner) -->
<g transform="translate(560, 270)">
    <rect x="-5" y="0" width="10" height="80" fill="#777"/>
    <rect x="-60" y="-60" width="120" height="60" fill="#4682b4" stroke="#fff" stroke-width="3"/>
    <text x="0" y="-42" font-family="sans-serif" font-weight="bold" font-size="11" fill="#fff" text-anchor="middle">DIVING SCHOOL.</text>
    <!-- Whale -->
    <path d="M -35 -10 Q -20 -30 0 -25 Q 20 -20 35 -25 L 40 -10 Q 20 5 0 5 Q -20 5 -35 -10 Z" fill="#708090"/>
    <circle cx="-15" cy="-15" r="2" fill="#111"/> <!-- whale eye -->
    <text x="0" y="-10" font-family="cursive" font-weight="bold" font-size="12" fill="#ffd700" text-anchor="middle">Captains</text>
</g>

<!-- Small Stump -->
<g transform="translate(720, 420)">
    <polygon points="-25,0 -15,-30 -5,-35 15,-25 20,0" fill="#4a3c31"/>
    <ellipse cx="-2" cy="-30" rx="12" ry="5" fill="#d2b48c"/>
    <path d="M -2 -33 L -2 -27" stroke="#8b4513" stroke-width="1"/>
</g>

<!-- Bare Twisting Tree -->
<g transform="translate(840, 420)">
    <path d="M 0 0 C -20 -40, 30 -80, 0 -130 C -20 -160, -50 -170, -60 -200 M 0 -130 C 40 -150, 60 -180, 50 -220 M 10 -70 C -30 -90, -50 -80, -70 -100 M 15 -100 C 50 -90, 70 -120, 90 -110" stroke="#3b2f2f" stroke-width="14" fill="none" stroke-linecap="round"/>
    <path d="M 0 0 C -20 -40, 30 -80, 0 -130 C -20 -160, -50 -170, -60 -200 M 0 -130 C 40 -150, 60 -180, 50 -220 M 10 -70 C -30 -90, -50 -80, -70 -100 M 15 -100 C 50 -90, 70 -120, 90 -110" stroke="#5c4033" stroke-width="8" fill="none" stroke-linecap="round"/>
</g>

<!-- SEGA Neon Gantry -->
<g transform="translate(930, 260)">
    <!-- Truss Legs -->
    <rect x="-60" y="0" width="12" height="160" fill="#555"/>
    <rect x="48" y="0" width="12" height="160" fill="#555"/>
    <!-- Truss Crosses -->
    <path d="M -54 0 L 54 40 M -54 40 L 54 80 M -54 80 L 54 120 M -54 120 L 54 160" stroke="#777" stroke-width="3"/>
    <path d="M 54 0 L -54 40 M 54 40 L -54 80 M 54 80 L -54 120 M 54 120 L -54 160" stroke="#777" stroke-width="3"/>
    <!-- Overhead Sign Box -->
    <rect x="-80" y="-40" width="160" height="40" fill="#111" stroke="#333" stroke-width="4"/>
    <!-- SEGA Neon Text -->
    <text x="0" y="-10" font-family="sans-serif" font-weight="900" font-size="32" fill="#0000ff" stroke="#00ffff" stroke-width="2" text-anchor="middle" letter-spacing="4">SEGA</text>
</g>

<!-- SCATTERED RED CARS (Extracted Animation Sequence) -->
<!-- Smallest Scale (Farthest) -->
<g transform="translate(760, 440) scale(0.3)">
    <use href="#ferrari"/>
</g>
<g transform="translate(800, 440) scale(0.3)">
    <use href="#ferrari"/>
</g>
<!-- Small-Medium Scale -->
<g transform="translate(780, 480) scale(0.6)">
    <use href="#ferrari"/>
</g>


<!-- ========================================== -->
<!-- BOTTOM SECTION                             -->
<!-- ========================================== -->

<!-- DANKE! Billboard -->
<g transform="translate(100, 620)">
    <rect x="-35" y="0" width="8" height="60" fill="#555"/>
    <rect x="27" y="0" width="8" height="60" fill="#555"/>
    <rect x="-70" y="-80" width="140" height="80" fill="#fff" stroke="#999" stroke-width="3"/>
    <!-- Gold Head -->
    <path d="M -45 -30 L -25 -30 L -25 -10 L -45 -10 Z" fill="#daa520"/>
    <circle cx="-35" cy="-40" r="18" fill="#ffd700"/>
    <!-- Speed Limit Sign -->
    <circle cx="25" cy="-45" r="20" fill="#fff" stroke="#e32636" stroke-width="5"/>
    <text x="25" y="-40" font-family="sans-serif" font-weight="bold" font-size="14" fill="#000" text-anchor="middle">100</text>
    <!-- Text -->
    <text x="15" y="-15" font-family="sans-serif" font-weight="900" font-size="20" fill="#333" text-anchor="middle">DANKE!</text>
</g>

<!-- Low Fern -->
<g transform="translate(240, 620)">
    <path d="M 0 0 Q -30 -40 -60 -10 Q -30 -20 0 0" fill="#228b22"/>
    <path d="M 0 0 Q -20 -60 -30 -40 Q -15 -30 0 0" fill="#006400"/>
    <path d="M 0 0 Q 0 -70 10 -50 Q 5 -30 0 0" fill="#32cd32"/>
    <path d="M 0 0 Q 30 -50 40 -30 Q 15 -20 0 0" fill="#228b22"/>
    <path d="M 0 0 Q 50 -30 60 -10 Q 25 -10 0 0" fill="#006400"/>
</g>

<!-- RIM Sign -->
<g transform="translate(360, 620)">
    <!-- Wooden Structure -->
    <rect x="-25" y="-30" width="8" height="30" fill="#8b4513"/>
    <rect x="17" y="-30" width="8" height="30" fill="#8b4513"/>
    <rect x="-35" y="-35" width="70" height="8" fill="#a0522d"/>
    <!-- Blue Oval -->
    <ellipse cx="0" cy="-60" rx="45" ry="30" fill="#00008b" stroke="#fff" stroke-width="3"/>
    <!-- Motorcyclist Graphic -->
    <path d="M -20 -65 L 10 -65 L 20 -50 L 5 -50 L -5 -60 Z" fill="#ccc"/>
    <circle cx="-10" cy="-50" r="8" fill="#fff"/>
    <circle cx="15" cy="-50" r="8" fill="#fff"/>
    <circle cx="0" cy="-75" r="7" fill="#ccc"/> <!-- helmet -->
    <!-- RIM Text -->
    <text x="0" y="-45" font-family="sans-serif" font-weight="900" font-size="16" fill="#fff" text-anchor="middle" font-style="italic">RIM</text>
</g>

<!-- Code inComplete Billboard -->
<g transform="translate(500, 620)">
    <rect x="-35" y="0" width="8" height="60" fill="#555"/>
    <rect x="27" y="0" width="8" height="60" fill="#555"/>
    <rect x="-60" y="-70" width="120" height="70" fill="#111" stroke="#ff8c00" stroke-width="3"/>
    <!-- Puzzle / Face -->
    <path d="M -35 -40 h 20 v 15 h -20 z" fill="#ff8c00"/>
    <path d="M 15 -40 h 20 v 15 h -20 z" fill="#ff8c00"/>
    <circle cx="-25" cy="-32" r="4" fill="#fff"/>
    <circle cx="-25" cy="-32" r="1.5" fill="#000"/>
    <circle cx="25" cy="-32" r="4" fill="#fff"/>
    <circle cx="25" cy="-32" r="1.5" fill="#000"/>
    <path d="M -10 -20 Q 0 -10 10 -20" stroke="#fff" stroke-width="2" fill="none"/>
    <!-- Text -->
    <text x="0" y="-5" font-family="monospace" font-weight="bold" font-size="11" fill="#fff" text-anchor="middle">Code inComplete</text>
</g>

<!-- Wide Flowering Shrub -->
<g transform="translate(660, 600)">
    <ellipse cx="0" cy="-20" rx="50" ry="30" fill="#228b22"/>
    <ellipse cx="-20" cy="-35" rx="30" ry="20" fill="#006400"/>
    <ellipse cx="20" cy="-35" rx="30" ry="20" fill="#2e8b57"/>
    <!-- Purple Flowers -->
    <circle cx="-30" cy="-40" r="4" fill="#9370db"/>
    <circle cx="-10" cy="-25" r="3" fill="#800080"/>
    <circle cx="15" cy="-45" r="5" fill="#da70d6"/>
    <circle cx="35" cy="-20" r="4" fill="#9932cc"/>
    <circle cx="0" cy="-15" r="3" fill="#8a2be2"/>
    <circle cx="-40" cy="-15" r="4" fill="#ba55d3"/>
</g>

<!-- Ice Cream Parlor Sign -->
<g transform="translate(800, 620)">
    <rect x="-6" y="0" width="12" height="60" fill="#888"/>
    <rect x="-55" y="-80" width="110" height="80" fill="#ffe4e1" stroke="#ff69b4" stroke-width="4"/>
    <!-- Text -->
    <text x="0" y="-60" font-family="sans-serif" font-weight="900" font-size="14" fill="#c71585" text-anchor="middle">ICE CREAM</text>
    <text x="0" y="-45" font-family="sans-serif" font-weight="900" font-size="14" fill="#c71585" text-anchor="middle">PARLOR</text>
    <!-- Sundae Graphic -->
    <path d="M -20 -20 L 20 -20 L 12 -5 L -12 -5 Z" fill="#1e90ff"/> <!-- Blue bowl -->
    <circle cx="-10" cy="-25" r="10" fill="#fff"/>
    <circle cx="10" cy="-25" r="10" fill="#ffb6c1"/>
    <circle cx="0" cy="-35" r="12" fill="#fff"/>
    <circle cx="0" cy="-45" r="5" fill="#ff0000"/> <!-- Cherry -->
</g>

<!-- Flat Dark Rocks -->
<g transform="translate(900, 600)">
    <ellipse cx="-25" cy="-10" rx="35" ry="15" fill="#3e2723"/>
    <ellipse cx="20" cy="-5" rx="30" ry="12" fill="#4e342e"/>
    <ellipse cx="0" cy="-15" rx="20" ry="10" fill="#5d4037"/>
</g>

<!-- Prickly Pear Cactus -->
<g transform="translate(1000, 600)">
    <!-- Main body -->
    <ellipse cx="0" cy="-30" rx="15" ry="30" fill="#2e8b57"/>
    <!-- Arms -->
    <ellipse cx="-20" cy="-20" rx="15" ry="10" fill="#2e8b57" transform="rotate(-30 -20 -20)"/>
    <ellipse cx="20" cy="-35" rx="15" ry="10" fill="#2e8b57" transform="rotate(30 20 -35)"/>
    <!-- Prickles -->
    <circle cx="0" cy="-50" r="1.5" fill="#fff"/>
    <circle cx="-5" cy="-35" r="1.5" fill="#fff"/>
    <circle cx="5" cy="-20" r="1.5" fill="#fff"/>
    <circle cx="-25" cy="-25" r="1.5" fill="#fff"/>
    <circle cx="25" cy="-40" r="1.5" fill="#fff"/>
</g>

<!-- Bulky Reddish-Brown Boulder -->
<g transform="translate(1080, 580)">
    <path d="M -40 0 C -50 -50, -20 -80, 10 -80 C 40 -80, 60 -40, 50 0 Z" fill="#8b4513"/>
    <path d="M -30 0 C -35 -40, -10 -60, 15 -60 C 35 -60, 45 -30, 40 0 Z" fill="#a0522d"/>
</g>


<!-- ========================================== -->
<!-- RIGHT COLUMN (VEHICLES - Rear Perspective) -->
<!-- ========================================== -->

<!-- Brown Semi-Truck Trailer (BIRIN) -->
<g transform="translate(1120, 100)">
    <!-- Box -->
    <rect x="-45" y="-60" width="90" height="100" fill="#654321"/>
    <rect x="-40" y="-55" width="80" height="90" fill="#8b5a2b"/>
    <!-- Rear Doors Details -->
    <line x1="0" y1="-55" x2="0" y2="35" stroke="#333" stroke-width="2"/>
    <rect x="-10" y="-10" width="4" height="20" fill="#ccc"/>
    <rect x="6" y="-10" width="4" height="20" fill="#ccc"/>
    <!-- Text -->
    <text x="0" y="-25" font-family="monospace" font-weight="bold" font-size="22" fill="#fff" text-anchor="middle" letter-spacing="3">BIRIN</text>
    <!-- Mudflaps / Wheels -->
    <rect x="-45" y="40" width="20" height="25" rx="2" fill="#111"/>
    <rect x="25" y="40" width="20" height="25" rx="2" fill="#111"/>
    <rect x="-40" y="35" width="80" height="10" fill="#222"/>
    <!-- Taillights -->
    <circle cx="-35" cy="40" r="3" fill="#ff0000"/>
    <circle cx="35" cy="40" r="3" fill="#ff0000"/>
</g>

<!-- Green Jeep -->
<g transform="translate(1120, 230)">
    <!-- Tires (Large) -->
    <rect x="-35" y="5" width="16" height="22" rx="3" fill="#111"/>
    <rect x="19" y="5" width="16" height="22" rx="3" fill="#111"/>
    <!-- Lower Body -->
    <rect x="-40" y="-15" width="80" height="25" fill="#2e8b57"/>
    <rect x="-30" y="-35" width="60" height="20" fill="#2e8b57"/>
    <!-- Bumper -->
    <rect x="-45" y="5" width="90" height="5" fill="#111"/>
    <rect x="-40" y="2" width="10" height="4" fill="#ff0000"/>
    <rect x="30" y="2" width="10" height="4" fill="#ff0000"/>
    <!-- Spare Tire -->
    <circle cx="0" cy="-10" r="14" fill="#111"/>
    <circle cx="0" cy="-10" r="6" fill="#555"/>
    <!-- Window -->
    <rect x="-25" y="-30" width="50" height="12" fill="#2f4f4f"/>
</g>

<!-- Pink Convertible -->
<g transform="translate(1120, 310)">
    <!-- Tires -->
    <rect x="-32" y="10" width="14" height="16" rx="2" fill="#111"/>
    <rect x="18" y="10" width="14" height="16" rx="2" fill="#111"/>
    <!-- Body -->
    <path d="M -38 -5 L 38 -5 L 34 15 L -34 15 Z" fill="#ff69b4"/>
    <rect x="-35" y="2" width="70" height="4" fill="#ff1493"/>
    <!-- Taillights -->
    <rect x="-32" y="2" width="12" height="4" fill="#ff0000"/>
    <rect x="20" y="2" width="12" height="4" fill="#ff0000"/>
    <!-- Open Top / Interior -->
    <rect x="-28" y="-15" width="56" height="15" fill="#222"/>
    <!-- Seats -->
    <path d="M -22 -15 L -10 -28 L -5 -15 Z" fill="#ff1493"/>
    <path d="M 5 -15 L 10 -28 L 22 -15 Z" fill="#ff1493"/>
    <!-- Rear Deck -->
    <path d="M -32 -15 L 32 -15 L 38 -5 L -38 -5 Z" fill="#ffb6c1"/>
    <!-- Windshield -->
    <rect x="-28" y="-30" width="56" height="8" fill="#add8e6" opacity="0.8"/>
    <rect x="-28" y="-30" width="56" height="8" fill="none" stroke="#ccc" stroke-width="2"/>
</g>

<!-- Blue Hatchback -->
<g transform="translate(1120, 390)">
    <!-- Tires -->
    <rect x="-28" y="10" width="12" height="16" rx="2" fill="#111"/>
    <rect x="16" y="10" width="12" height="16" rx="2" fill="#111"/>
    <!-- Lower Body -->
    <path d="M -32 -5 L 32 -5 L 28 15 L -28 15 Z" fill="#4682b4"/>
    <!-- Bumper/Lights -->
    <rect x="-30" y="5" width="60" height="4" fill="#222"/>
    <rect x="-28" y="2" width="8" height="5" fill="#ff0000"/>
    <rect x="20" y="2" width="8" height="5" fill="#ff0000"/>
    <!-- Hatch Cabin -->
    <path d="M -26 -28 L 26 -28 L 32 -5 L -32 -5 Z" fill="#4682b4"/>
    <!-- Rear Window -->
    <path d="M -20 -24 L 20 -24 L 24 -7 L -24 -7 Z" fill="#87ceeb"/>
</g>

<!-- Brown Car -->
<g transform="translate(1120, 460)">
    <!-- Tires -->
    <rect x="-30" y="10" width="14" height="16" rx="2" fill="#111"/>
    <rect x="16" y="10" width="14" height="16" rx="2" fill="#111"/>
    <!-- Lower Body -->
    <path d="M -36 -5 L 36 -5 L 32 15 L -32 15 Z" fill="#8b4513"/>
    <!-- Bumper/Lights -->
    <rect x="-32" y="4" width="64" height="4" fill="#333"/>
    <rect x="-30" y="2" width="10" height="4" fill="#ff0000"/>
    <rect x="20" y="2" width="10" height="4" fill="#ff0000"/>
    <!-- Cabin -->
    <path d="M -22 -20 L 22 -20 L 32 -5 L -32 -5 Z" fill="#8b4513"/>
    <!-- Rear Window -->
    <path d="M -18 -18 L 18 -18 L 24 -7 L -24 -7 Z" fill="#445566"/>
</g>

<!-- Largest Scale Red Sports Car (Closest to camera) -->
<g transform="translate(1120, 560) scale(1.4)">
    <use href="#ferrari"/>
</g>

<!-- Bottom Row (Medium-Large Cars) -->
<g transform="translate(950, 720)">
    <use href="#blue-ferrari"/>
</g>
<g transform="translate(1050, 720)">
    <use href="#ferrari"/>
</g>
<g transform="translate(1150, 720)">
    <use href="#ferrari"/>
</g>
</svg>
