<svg xmlns="http://www.w3.org/2000/svg" viewBox="0 0 500 350" width="100%" height="100%">
  <defs>
    <filter id="outline">
      <feMorphology in="SourceAlpha" result="DILATED" operator="dilate" radius="2.5"></feMorphology>
      <feFlood flood-color="#0B0014" result="BLACK"></feFlood>
      <feComposite in="BLACK" in2="DILATED" operator="in" result="OUTLINE"></feComposite>
      <feMerge>
        <feMergeNode in="OUTLINE" />
        <feMergeNode in="SourceGraphic" />
      </feMerge>
    </filter>
    
    <pattern id="dither-dark" width="4" height="4" patternUnits="userSpaceOnUse">
      <rect width="2" height="2" fill="#1A0526" opacity="0.55"/>
      <rect x="2" y="2" width="2" height="2" fill="#1A0526" opacity="0.55"/>
    </pattern>

    <pattern id="dither-light" width="4" height="4" patternUnits="userSpaceOnUse">
      <rect width="2" height="2" fill="#E0B0FF" opacity="0.45"/>
      <rect x="2" y="2" width="2" height="2" fill="#E0B0FF" opacity="0.45"/>
    </pattern>
    
    <pattern id="tire-tread" width="10" height="10" patternUnits="userSpaceOnUse">
      <rect width="10" height="2" fill="#000000" opacity="0.8"/>
    </pattern>
  </defs>

  <ellipse cx="250" cy="310" rx="230" ry="25" fill="#000000" opacity="0.65"/>

  <g filter="url(#outline)" shape-rendering="crispEdges" transform="skewX(8)">
    
    <polygon points="40,200 100,200 100,310 25,310" fill="#111111"/>
    <polygon points="45,200 95,200 95,310 30,310" fill="url(#tire-tread)"/>
    <polygon points="25,310 40,200 45,200 30,310" fill="#222222"/>
    
    <polygon points="400,200 460,200 475,310 400,310" fill="#111111"/>
    <polygon points="405,200 455,200 470,310 405,310" fill="url(#tire-tread)"/>
    <polygon points="475,310 460,200 455,200 470,310" fill="#222222"/>

    <polygon points="60,280 440,280 420,305 80,305" fill="#1A1A1A"/>
    <polygon points="180,280 320,280 310,315 190,315" fill="#262626"/>
    <polygon points="205,280 210,280 212,315 207,315" fill="#0B0014"/>
    <polygon points="248,280 252,280 252,315 248,315" fill="#0B0014"/>
    <polygon points="290,280 295,280 293,315 288,315" fill="#0B0014"/>

    <rect x="130" y="275" width="20" height="14" rx="2" fill="#888888"/>
    <rect x="155" y="275" width="20" height="14" rx="2" fill="#888888"/>
    <rect x="133" y="278" width="14" height="8" rx="1" fill="#0B0014"/>
    <rect x="158" y="278" width="14" height="8" rx="1" fill="#0B0014"/>
    <rect x="325" y="275" width="20" height="14" rx="2" fill="#888888"/>
    <rect x="350" y="275" width="20" height="14" rx="2" fill="#888888"/>
    <rect x="328" y="278" width="14" height="8" rx="1" fill="#0B0014"/>
    <rect x="353" y="278" width="14" height="8" rx="1" fill="#0B0014"/>

    <polygon points="50,240 450,240 440,280 60,280" fill="#2D0B3D"/>
    <polygon points="50,240 450,240 440,280 60,280" fill="url(#dither-dark)"/>

    <polygon points="40,200 460,200 450,240 50,240" fill="#111111"/>
    
    <polygon points="200,205 300,205 295,235 205,235" fill="#222222"/>
    <polygon points="220,210 280,210 278,225 222,225" fill="#FACC15"/>
    <path d="M 226,215 L 274,215 M 225,220 L 275,220" stroke="#B45309" stroke-width="2" stroke-dasharray="4 2 8 2 6"/>

    <polygon points="45,205 80,205 82,235 50,235" fill="#F59E0B"/>
    <polygon points="80,205 145,205 146,235 82,235" fill="#DC2626"/>
    <polygon points="145,205 180,205 180,235 146,235" fill="#E5E7EB"/>
    
    <polygon points="320,205 355,205 354,235 320,235" fill="#E5E7EB"/>
    <polygon points="355,205 420,205 418,235 354,235" fill="#DC2626"/>
    <polygon points="420,205 455,205 450,235 418,235" fill="#F59E0B"/>

    <path d="M 48,215 L 178,215 M 49,225 L 179,225 M 322,215 L 452,215 M 321,225 L 451,225" stroke="#111111" stroke-width="2"/>
    <rect x="52" y="208" width="12" height="4" fill="#FFFFFF" opacity="0.7"/>
    <rect x="436" y="208" width="12" height="4" fill="#FFFFFF" opacity="0.7"/>

    <polygon points="50,180 450,180 460,200 40,200" fill="#741B9C"/>
    <polygon points="50,180 450,180 448,183 52,183" fill="#C95BFC"/>

    <polygon points="100,160 130,160 110,180 50,180" fill="#4B1066"/>
    <polygon points="370,160 400,160 450,180 390,180" fill="#4B1066"/>
    <polygon points="100,160 130,160 110,180 50,180" fill="url(#dither-dark)"/>
    <polygon points="370,160 400,160 450,180 390,180" fill="url(#dither-dark)"/>
    <polygon points="128,160 131,160 111,180 108,180" fill="#C95BFC"/>
    <polygon points="369,160 372,160 392,180 389,180" fill="#C95BFC"/>

    <polygon points="130,160 370,160 390,180 110,180" fill="#741B9C"/>
    <polygon points="130,160 370,160 390,180 110,180" fill="url(#dither-dark)"/>
    <path d="M 140,164 L 360,164 M 135,169 L 365,169 M 130,174 L 370,174" stroke="#2D0B3D" stroke-width="3"/>

    <polygon points="180,75 160,75 100,160 130,160" fill="#9B28D0"/>
    <polygon points="320,75 340,75 400,160 370,160" fill="#9B28D0"/>
    <polygon points="180,75 160,75 100,160 130,160" fill="url(#dither-light)"/>
    <polygon points="320,75 340,75 400,160 370,160" fill="url(#dither-light)"/>

    <polygon points="180,75 320,75 370,160 130,160" fill="#0F172A"/>
    <polygon points="190,75 230,75 210,160 150,160" fill="#1D4ED8"/>
    <polygon points="250,75 270,75 260,160 220,160" fill="#3B82F6"/>
    <polygon points="280,75 285,75 280,160 270,160" fill="#93C5FD"/>

    <polygon points="175,85 345,85 350,93 170,93" fill="#111111"/>
    <polygon points="165,104 355,104 360,113 160,113" fill="#111111"/>
    <polygon points="155,125 365,125 370,135 150,135" fill="#111111"/>
    <polygon points="145,148 375,148 380,158 140,158" fill="#111111"/>

    <polygon points="190,60 330,60 340,75 180,75" fill="#C95BFC"/>
    <polygon points="190,60 330,60 340,75 180,75" fill="url(#dither-light)"/>
    <polygon points="190,60 330,60 328,63 192,63" fill="#FFFFFF" opacity="0.6"/>

    <polygon points="115,120 80,115 85,100 110,105" fill="#741B9C"/>
    <polygon points="385,120 420,115 415,100 390,105" fill="#741B9C"/>

    <polygon points="130,95 150,95 170,165 150,165" fill="#2D0B3D"/>
    <polygon points="350,95 370,95 330,165 350,165" fill="#2D0B3D"/>
    
    <polygon points="20,90 480,90 475,95 25,95" fill="#4B1066"/>
    <polygon points="40,75 460,75 480,90 20,90" fill="#C95BFC"/>
    <polygon points="40,75 460,75 480,90 20,90" fill="url(#dither-light)"/>
    <polygon points="20,90 480,90 478,92 22,92" fill="#E0B0FF"/>

    <polygon points="40,50 20,65 20,90 40,75" fill="#9B28D0"/>
    <polygon points="460,50 480,65 480,90 460,75" fill="#9B28D0"/>
    <polygon points="40,50 20,65 20,90 40,75" fill="url(#dither-dark)"/>
    <polygon points="460,50 480,65 480,90 460,75" fill="url(#dither-dark)"/>
    
    <polygon points="40,50 20,65 22,65 42,50" fill="#E0B0FF"/>
    <polygon points="460,50 480,65 478,65 458,50" fill="#E0B0FF"/>

  </g>
</svg>