<svg xmlns="http://www.w3.org/2000/svg" viewBox="0 0 46 75" width="100%" height="100%">
  <rect width="46" height="75" fill="#2e7d32" rx="3"/>
  <ellipse cx="23" cy="55" rx="20" ry="12" fill="#5d4037"/>
  <ellipse cx="15" cy="52" rx="8" ry="5" fill="#4a3a2a"/>
  <ellipse cx="30" cy="58" rx="6" ry="4" fill="#4a3a2a"/>
  <path d="M 10,35 Q 12,25 14,35 Q 16,25 18,35" fill="none" stroke="#4a7c4a" stroke-width="2"/>
  <path d="M 28,38 Q 30,28 32,38 Q 34,28 36,38" fill="none" stroke="#4a7c4a" stroke-width="2"/>
  <path d="M 19,40 Q 21,30 23,40 Q 25,30 27,40" fill="none" stroke="#3d6b3d" stroke-width="2"/>
  <ellipse cx="23" cy="60" rx="10" ry="3" fill="#3d4d3d" opacity="0.5"/>
  <circle cx="12" cy="20" r="3" fill="#2e7d32"/>
  <circle cx="34" cy="22" r="2.5" fill="#2e7d32"/>
  <circle cx="23" cy="15" r="2" fill="#3d8b3d"/>
</svg>
