<?xml version="1.0" encoding="UTF-8" standalone="no"?>
<svg
   viewBox="0 0 110 125"
   width="110"
   height="125"
   version="1.1"
   id="svg146"
   sodipodi:docname="sprites.svg"
   inkscape:export-batch-name="sprites"
   xmlns:inkscape="http://www.inkscape.org/namespaces/inkscape"
   xmlns:sodipodi="http://sodipodi.sourceforge.net/DTD/sodipodi-0.dtd"
   xmlns="http://www.w3.org/2000/svg"
   xmlns:svg="http://www.w3.org/2000/svg">
  <sodipodi:namedview
     id="namedview146"
     pagecolor="#ffffff"
     bordercolor="#000000"
     borderopacity="0.25"
     inkscape:showpageshadow="2"
     inkscape:pageopacity="0.0"
     inkscape:pagecheckerboard="0"
     inkscape:deskcolor="#d1d1d1">
    <inkscape:page
       x="0"
       y="0"
       width="110"
       height="125"
       id="page1"
       margin="0"
       bleed="0" />
  </sodipodi:namedview>
  <defs
     id="defs20">
    <!-- Background Checkerboard Pattern -->
    <!-- Red Sports Car (OutRun Ferrari style) -->
    <!-- Blue Sports Car -->
    <!-- Palm Frond -->
  </defs>
  <!-- Background -->
  <!-- ========================================== -->
  <!-- TOP SECTION                                -->
  <!-- ========================================== -->
  <!-- Tall Curved Palm Tree -->
  <!-- SNAKES Billboard -->
  <!-- Bushy Deciduous Tree -->
  <!-- Castle Turret -->
  <!-- Blossoming Tree -->
  <g
     transform="translate(55,125)"
     id="g48">
    <path
       d="M -10,0 H 10 L 5,-70 H -5 Z"
       fill="#5c4033"
       id="path42" />
    <circle
       cx="0"
       cy="-90"
       r="35"
       fill="#ffb6c1"
       id="circle42" />
    <circle
       cx="-25"
       cy="-65"
       r="30"
       fill="#ff69b4"
       id="circle43" />
    <circle
       cx="25"
       cy="-65"
       r="30"
       fill="#ffffff"
       id="circle44" />
    <circle
       cx="-15"
       cy="-40"
       r="20"
       fill="#2e8b57"
       id="circle45" />
    <circle
       cx="15"
       cy="-40"
       r="20"
       fill="#2e8b57"
       id="circle46" />
    <circle
       cx="0"
       cy="-100"
       r="10"
       fill="#ffffff"
       id="circle47" />
    <circle
       cx="-30"
       cy="-80"
       r="15"
       fill="#ffffff"
       id="circle48" />
  </g>
  <!-- ========================================== -->
  <!-- MIDDLE SECTION                             -->
  <!-- ========================================== -->
  <!-- Tall Bare Dead Tree -->
  <!-- Jagged Rock Wall -->
  <!-- Redmond Billboard -->
  <!-- LiquidPlanner Billboard -->
  <!-- Diving School Sign (Slightly Above LiquidPlanner) -->
  <!-- Small Stump -->
  <!-- Bare Twisting Tree -->
  <g
     transform="translate(15,345)"
     id="g63">
    <path
       d="m 0,0 c -20,-40 30,-80 0,-130 -20,-30 -50,-40 -60,-70 m 60,70 c 40,-20 60,-50 50,-90 M 10,-70 c -40,-20 -60,-10 -80,-30 m 85,0 c 35,10 55,-20 75,-10"
       stroke="#3b2f2f"
       stroke-width="14"
       fill="none"
       stroke-linecap="round"
       id="path62" />
    <path
       d="m 0,0 c -20,-40 30,-80 0,-130 -20,-30 -50,-40 -60,-70 m 60,70 c 40,-20 60,-50 50,-90 M 10,-70 c -40,-20 -60,-10 -80,-30 m 85,0 c 35,10 55,-20 75,-10"
       stroke="#5c4033"
       stroke-width="8"
       fill="none"
       stroke-linecap="round"
       id="path63" />
  </g>
  <!-- SEGA Neon Gantry -->
  <!-- SCATTERED RED CARS (Extracted Animation Sequence) -->
  <!-- Smallest Scale (Farthest) -->
  <!-- Small-Medium Scale -->
  <!-- ========================================== -->
  <!-- BOTTOM SECTION                             -->
  <!-- ========================================== -->
  <!-- DANKE! Billboard -->
  <!-- Low Fern -->
  <!-- RIM Sign -->
  <!-- Code inComplete Billboard -->
  <!-- Wide Flowering Shrub -->
  <!-- Ice Cream Parlor Sign -->
  <!-- Flat Dark Rocks -->
  <!-- Prickly Pear Cactus -->
  <!-- Bulky Reddish-Brown Boulder -->
  <!-- ========================================== -->
  <!-- RIGHT COLUMN (VEHICLES - Rear Perspective) -->
  <!-- ========================================== -->
  <!-- Brown Semi-Truck Trailer (BIRIN) -->
  <!-- Green Jeep -->
  <!-- Pink Convertible -->
  <!-- Blue Hatchback -->
  <!-- Brown Car -->
  <!-- Largest Scale Red Sports Car (Closest to camera) -->
  <!-- Bottom Row (Medium-Large Cars) -->
</svg>
