<svg viewBox="0 0 120 70" xmlns="http://www.w3.org/2000/svg">
  <defs>
    <linearGradient id="m200Body" x1="0%" y1="0%" x2="0%" y2="100%">
      <stop offset="0%" style="stop-color:#FFD700"/>
      <stop offset="50%" style="stop-color:#FFA500"/>
      <stop offset="100%" style="stop-color:#FF8C00"/>
    </linearGradient>
    <linearGradient id="m200Window" x1="0%" y1="0%" x2="0%" y2="100%">
      <stop offset="0%" style="stop-color:#1A1A2E"/>
      <stop offset="100%" style="stop-color:#0A0A1E"/>
    </linearGradient>
    <linearGradient id="m200Accent" x1="0%" y1="0%" x2="100%" y2="0%">
      <stop offset="0%" style="stop-color:#00FFFF"/>
      <stop offset="100%" style="stop-color:#FF00FF"/>
    </linearGradient>
  </defs>
  
  <g id="lotus-m200">
    <rect x="5" y="48" width="18" height="14" rx="3" fill="#1a1a1a"/>
    <rect x="97" y="48" width="18" height="14" rx="3" fill="#1a1a1a"/>
    
    <path d="M0 38 L8 32 L18 15 L38 12 L82 12 L102 18 L115 30 L120 40 L118 50 L5 50 L0 42 Z" fill="url(#m200Body)"/>
    
    <path d="M8 44 L112 44 L110 52 L10 52 Z" fill="#CC7000"/>
    
    <rect x="6" y="41" width="12" height="6" rx="1" fill="#ff3333"/>
    <rect x="102" y="41" width="12" height="6" rx="1" fill="#ff3333"/>
    
    <rect x="28" y="33" width="12" height="4" rx="1" fill="#111"/>
    <rect x="80" y="33" width="12" height="4" rx="1" fill="#111"/>
    
    <path d="M20 12 L100 12 L92 30 L28 30 Z" fill="#B87300"/>
    
    <path d="M26 14 L94 14 L88 28 L32 28 Z" fill="url(#m200Window)"/>
    
    <line x1="60" y1="14" x2="60" y2="28" stroke="#B87300" stroke-width="1.5"/>
    
    <path d="M42 12 L50 5 L70 5 L78 12" fill="#8B5000" opacity="0.6"/>
    
    <ellipse cx="60" cy="8" rx="6" ry="2" fill="#333" opacity="0.5"/>
    
    <line x1="20" y1="30" x2="100" y2="30" stroke="url(#m200Accent)" stroke-width="1.5" opacity="0.6"/>
    
    <circle cx="48" cy="44" r="4" fill="#B87300"/>
    <circle cx="72" cy="44" r="4" fill="#B87300"/>
    
    <path d="M115 32 L120 35 L120 48 L115 52 Z" fill="#8B5000"/>
    
    <rect x="55" y="22" width="10" height="3" rx="1" fill="#00FFFF" opacity="0.9"/>
    
    <text x="60" y="55" font-family="sans-serif" font-size="6" fill="#FFE4B5" text-anchor="middle" font-weight="bold">M200</text>
  </g>
</svg>
