<svg viewBox="0 0 100 35" xmlns="http://www.w3.org/2000/svg">
  <defs>
    <linearGradient id="logBody" x1="0%" y1="0%" x2="0%" y2="100%">
      <stop offset="0%" style="stop-color:#8B4513"/>
      <stop offset="30%" style="stop-color:#6B3A0A"/>
      <stop offset="70%" style="stop-color:#5D2E0A"/>
      <stop offset="100%" style="stop-color:#4A2508"/>
    </linearGradient>
    <linearGradient id="logEnd" x1="0%" y1="0%" x2="100%" y2="100%">
      <stop offset="0%" style="stop-color:#D2B48C"/>
      <stop offset="50%" style="stop-color:#C4A574"/>
      <stop offset="100%" style="stop-color:#A08060"/>
    </linearGradient>
  </defs>
  
  <rect x="5" y="10" width="90" height="20" rx="10" fill="url(#logBody)"/>
  
  <ellipse cx="5" cy="20" rx="5" ry="10" fill="url(#logEnd)"/>
  <ellipse cx="95" cy="20" rx="5" ry="10" fill="url(#logEnd)"/>
  
  <line x1="5" y1="15" x2="95" y2="15" stroke="#9B5523" stroke-width="1" opacity="0.5"/>
  <line x1="5" y1="20" x2="95" y2="20" stroke="#4A2508" stroke-width="0.5" opacity="0.3"/>
  <line x1="5" y1="25" x2="95" y2="25" stroke="#3A1A05" stroke-width="0.5" opacity="0.4"/>
  
  <circle cx="5" cy="20" r="2" fill="#8B6914" opacity="0.6"/>
  <circle cx="5" cy="17" r="1.5" fill="#8B6914" opacity="0.4"/>
  <circle cx="5" cy="23" r="1" fill="#8B6914" opacity="0.5"/>
  
  <circle cx="95" cy="20" r="2" fill="#8B6914" opacity="0.6"/>
  <circle cx="95" cy="18" r="1.5" fill="#8B6914" opacity="0.4"/>
  <circle cx="95" cy="22" r="1" fill="#8B6914" opacity="0.5"/>
  
  <path d="M3 18 Q5 15 7 18" stroke="#5D3A1A" stroke-width="0.5" fill="none" opacity="0.4"/>
  <path d="M93 19 Q95 16 97 19" stroke="#5D3A1A" stroke-width="0.5" fill="none" opacity="0.4"/>
  
  <ellipse cx="50" cy="32" rx="40" ry="3" fill="#1a0a00" opacity="0.2"/>
</svg>
