<?xml version="1.0" encoding="UTF-8" standalone="no"?>
<svg
   viewBox="0 0 1200 800"
   width="1200"
   height="800"
   version="1.1"
   id="svg146"
   sodipodi:docname="sprites.svg"
   inkscape:export-batch-name="sprites"
   xmlns:inkscape="http://www.inkscape.org/namespaces/inkscape"
   xmlns:sodipodi="http://sodipodi.sourceforge.net/DTD/sodipodi-0.dtd"
   xmlns:xlink="http://www.w3.org/1999/xlink"
   xmlns="http://www.w3.org/2000/svg"
   xmlns:svg="http://www.w3.org/2000/svg">
  <sodipodi:namedview
     id="namedview146"
     pagecolor="#ffffff"
     bordercolor="#000000"
     borderopacity="0.25"
     inkscape:showpageshadow="2"
     inkscape:pageopacity="0.0"
     inkscape:pagecheckerboard="0"
     inkscape:deskcolor="#d1d1d1">
    <inkscape:page
       x="0"
       y="0"
       width="1200"
       height="800"
       id="page1"
       margin="0"
       bleed="0" />
  </sodipodi:namedview>
  <defs
     id="defs20">
    <pattern
       inkscape:collect="always"
       xlink:href="#checker"
       id="pattern1"
       patternTransform="scale(1)" />
    <!-- Background Checkerboard Pattern -->
    <pattern
       id="checker"
       width="40"
       height="40"
       patternUnits="userSpaceOnUse">
      <rect
         width="40"
         height="40"
         fill="#222222"
         id="rect1" />
      <rect
         width="20"
         height="20"
         fill="#2a2a2a"
         id="rect2" />
      <rect
         x="20"
         y="20"
         width="20"
         height="20"
         fill="#2a2a2a"
         id="rect3" />
    </pattern>
    <!-- Red Sports Car (OutRun Ferrari style) -->
    <g
       id="ferrari">
      <!-- Tires -->
      <rect
         x="-38"
         y="12"
         width="18"
         height="14"
         rx="2"
         fill="#111111"
         id="rect4" />
      <rect
         x="20"
         y="12"
         width="18"
         height="14"
         rx="2"
         fill="#111111"
         id="rect5" />
      <!-- Lower body -->
      <path
         d="M -45,-2 H 45 L 40,18 H -40 Z"
         fill="#d21f3c"
         id="path5" />
      <!-- Grill / Taillight area -->
      <rect
         x="-40"
         y="2"
         width="80"
         height="8"
         fill="#1a1a1a"
         id="rect6" />
      <rect
         x="-35"
         y="4"
         width="15"
         height="4"
         fill="#ff0000"
         id="rect7" />
      <rect
         x="20"
         y="4"
         width="15"
         height="4"
         fill="#ff0000"
         id="rect8" />
      <rect
         x="-15"
         y="4"
         width="30"
         height="4"
         fill="#ff6600"
         id="rect9" />
      <!-- Exhaust -->
      <circle
         cx="-25"
         cy="15"
         r="2"
         fill="#cccccc"
         id="circle9" />
      <circle
         cx="25"
         cy="15"
         r="2"
         fill="#cccccc"
         id="circle10" />
      <!-- Cabin -->
      <path
         d="M -22,-18 H 22 L 35,-2 H -35 Z"
         fill="#d21f3c"
         id="path10" />
      <!-- Rear Window -->
      <path
         d="M -18,-15 H 18 L 28,-4 H -28 Z"
         fill="#111111"
         id="path11" />
      <line
         x1="-18"
         y1="-15"
         x2="-28"
         y2="-4"
         stroke="#d21f3c"
         stroke-width="1"
         id="line11" />
      <line
         x1="18"
         y1="-15"
         x2="28"
         y2="-4"
         stroke="#d21f3c"
         stroke-width="1"
         id="line12" />
    </g>
    <!-- Blue Sports Car -->
    <g
       id="blue-ferrari">
      <!-- Tires -->
      <rect
         x="-38"
         y="12"
         width="18"
         height="14"
         rx="2"
         fill="#111111"
         id="rect12" />
      <rect
         x="20"
         y="12"
         width="18"
         height="14"
         rx="2"
         fill="#111111"
         id="rect13" />
      <!-- Lower body -->
      <path
         d="M -45,-2 H 45 L 40,18 H -40 Z"
         fill="#1e90ff"
         id="path13" />
      <!-- Grill / Taillight area -->
      <rect
         x="-40"
         y="2"
         width="80"
         height="8"
         fill="#1a1a1a"
         id="rect14" />
      <rect
         x="-35"
         y="4"
         width="15"
         height="4"
         fill="#ff0000"
         id="rect15" />
      <rect
         x="20"
         y="4"
         width="15"
         height="4"
         fill="#ff0000"
         id="rect16" />
      <rect
         x="-15"
         y="4"
         width="30"
         height="4"
         fill="#ffa500"
         id="rect17" />
      <!-- Exhaust -->
      <circle
         cx="-25"
         cy="15"
         r="2"
         fill="#cccccc"
         id="circle17" />
      <circle
         cx="25"
         cy="15"
         r="2"
         fill="#cccccc"
         id="circle18" />
      <!-- Cabin -->
      <path
         d="M -22,-18 H 22 L 35,-2 H -35 Z"
         fill="#1e90ff"
         id="path18" />
      <!-- Rear Window -->
      <path
         d="M -18,-15 H 18 L 28,-4 H -28 Z"
         fill="#111111"
         id="path19" />
      <line
         x1="-18"
         y1="-15"
         x2="-28"
         y2="-4"
         stroke="#1e90ff"
         stroke-width="1"
         id="line19" />
      <line
         x1="18"
         y1="-15"
         x2="28"
         y2="-4"
         stroke="#1e90ff"
         stroke-width="1"
         id="line20" />
    </g>
    <!-- Palm Frond -->
    <path
       id="frond"
       d="M 0,0 Q -30,-30 -60,-10 -30,-15 0,0"
       fill="#32cd32" />
  </defs>
  <!-- Background -->
  <rect
     width="100%"
     height="100%"
     fill="url(#checker)"
     id="rect20"
     x="0"
     y="0"
     style="fill:url(#pattern1)" />
  <!-- ========================================== -->
  <!-- TOP SECTION                                -->
  <!-- ========================================== -->
  <!-- Tall Curved Palm Tree -->
  <g
     transform="translate(100,200)"
     id="g30">
    <path
       d="M -10,0 Q -30,-80 15,-140 H 5 Q -40,-80 -20,0 Z"
       fill="#8b4513"
       id="path20" />
    <g
       transform="translate(10,-135)"
       id="g29">
      <use
         href="#frond"
         id="use20" />
      <use
         href="#frond"
         transform="rotate(45)"
         id="use21" />
      <use
         href="#frond"
         transform="rotate(90)"
         id="use22" />
      <use
         href="#frond"
         transform="rotate(135)"
         id="use23" />
      <use
         href="#frond"
         transform="scale(-1)"
         id="use24" />
      <use
         href="#frond"
         transform="rotate(-135)"
         id="use25" />
      <use
         href="#frond"
         transform="rotate(-90)"
         id="use26" />
      <use
         href="#frond"
         transform="rotate(-45)"
         id="use27" />
      <!-- Coconuts -->
      <circle
         cx="-5"
         cy="5"
         r="6"
         fill="#5c3a21"
         id="circle27" />
      <circle
         cx="5"
         cy="8"
         r="6"
         fill="#5c3a21"
         id="circle28" />
      <circle
         cx="0"
         cy="12"
         r="6"
         fill="#5c3a21"
         id="circle29" />
    </g>
  </g>
  <!-- SNAKES Billboard -->
  <g
     transform="translate(280,180)"
     id="g32">
    <!-- Stilts -->
    <rect
       x="-45"
       y="0"
       width="10"
       height="60"
       fill="#666666"
       id="rect30" />
    <rect
       x="35"
       y="0"
       width="10"
       height="60"
       fill="#666666"
       id="rect31" />
    <!-- Board -->
    <rect
       x="-80"
       y="-70"
       width="160"
       height="80"
       fill="#ffd700"
       stroke="#b8860b"
       stroke-width="4"
       id="rect32" />
    <!-- Text -->
    <text
       x="0"
       y="-35"
       font-family="sans-serif"
       font-weight="900"
       font-size="28px"
       fill="#ff4500"
       text-anchor="middle"
       letter-spacing="2"
       id="text32">SNAKES</text>
    <!-- Winding Track Line -->
    <path
       d="m -60,-15 q 30,-25 60,0 30,25 60,0"
       fill="none"
       stroke="#222222"
       stroke-width="5"
       stroke-linecap="round"
       id="path32" />
  </g>
  <!-- Bushy Deciduous Tree -->
  <g
     transform="translate(500,200)"
     id="g36">
    <rect
       x="-15"
       y="-60"
       width="30"
       height="70"
       fill="#654321"
       id="rect33" />
    <circle
       cx="0"
       cy="-100"
       r="45"
       fill="#228b22"
       id="circle33" />
    <circle
       cx="-35"
       cy="-60"
       r="40"
       fill="#228b22"
       id="circle34" />
    <circle
       cx="35"
       cy="-60"
       r="40"
       fill="#228b22"
       id="circle35" />
    <circle
       cx="0"
       cy="-40"
       r="30"
       fill="#2e8b57"
       id="circle36" />
  </g>
  <!-- Castle Turret -->
  <g
     transform="translate(700,200)"
     id="g42">
    <rect
       x="-30"
       y="-140"
       width="60"
       height="150"
       fill="#778899"
       stroke="#2f4f4f"
       stroke-width="2"
       id="rect36" />
    <!-- Crenellations -->
    <rect
       x="-35"
       y="-155"
       width="15"
       height="15"
       fill="#778899"
       stroke="#2f4f4f"
       stroke-width="2"
       id="rect37" />
    <rect
       x="-10"
       y="-155"
       width="20"
       height="15"
       fill="#778899"
       stroke="#2f4f4f"
       stroke-width="2"
       id="rect38" />
    <rect
       x="20"
       y="-155"
       width="15"
       height="15"
       fill="#778899"
       stroke="#2f4f4f"
       stroke-width="2"
       id="rect39" />
    <!-- Stone lines / Windows -->
    <rect
       x="-5"
       y="-100"
       width="10"
       height="25"
       fill="#111111"
       id="rect40" />
    <rect
       x="-5"
       y="-50"
       width="10"
       height="25"
       fill="#111111"
       id="rect41" />
    <line
       x1="-30"
       y1="-80"
       x2="30"
       y2="-80"
       stroke="#556b2f"
       stroke-width="1"
       opacity="0.5"
       id="line41" />
    <line
       x1="-30"
       y1="-30"
       x2="30"
       y2="-30"
       stroke="#556b2f"
       stroke-width="1"
       opacity="0.5"
       id="line42" />
  </g>
  <!-- Blossoming Tree -->
  <g
     transform="translate(880,200)"
     id="g48">
    <path
       d="M -10,0 H 10 L 5,-70 H -5 Z"
       fill="#5c4033"
       id="path42" />
    <circle
       cx="0"
       cy="-90"
       r="35"
       fill="#ffb6c1"
       id="circle42" />
    <circle
       cx="-25"
       cy="-65"
       r="30"
       fill="#ff69b4"
       id="circle43" />
    <circle
       cx="25"
       cy="-65"
       r="30"
       fill="#ffffff"
       id="circle44" />
    <circle
       cx="-15"
       cy="-40"
       r="20"
       fill="#2e8b57"
       id="circle45" />
    <circle
       cx="15"
       cy="-40"
       r="20"
       fill="#2e8b57"
       id="circle46" />
    <circle
       cx="0"
       cy="-100"
       r="10"
       fill="#ffffff"
       id="circle47" />
    <circle
       cx="-30"
       cy="-80"
       r="15"
       fill="#ffffff"
       id="circle48" />
  </g>
  <!-- ========================================== -->
  <!-- MIDDLE SECTION                             -->
  <!-- ========================================== -->
  <!-- Tall Bare Dead Tree -->
  <g
     transform="translate(90,420)"
     id="g49">
    <path
       d="m 0,0 q -5,-60 0,-120 m 0,0 -30,-40 m 15,20 10,-40 m 5,60 25,-50 m -15,30 25,10 M 0,-60 -40,-80 m 20,10 -10,20 m 30,-30 30,-20"
       stroke="#4a3c31"
       stroke-width="8"
       fill="none"
       stroke-linecap="square"
       id="path48" />
  </g>
  <!-- Jagged Rock Wall -->
  <g
     transform="translate(200,420)"
     id="g50">
    <polygon
       points="-20,-110 10,-70 40,-120 70,-60 90,0 -70,0 -50,-80 "
       fill="#8b4513"
       stroke="#5c4033"
       stroke-width="3"
       id="polygon49" />
    <polygon
       points="-10,-60 10,-30 30,-70 50,-40 70,0 -40,0 -30,-40 "
       fill="#a0522d"
       id="polygon50" />
  </g>
  <!-- Redmond Billboard -->
  <g
     transform="translate(380,420)"
     id="g53">
    <rect
       x="-35"
       y="0"
       width="8"
       height="60"
       fill="#555555"
       id="rect50" />
    <rect
       x="27"
       y="0"
       width="8"
       height="60"
       fill="#555555"
       id="rect51" />
    <rect
       x="-70"
       y="-70"
       width="140"
       height="70"
       fill="#f0f8ff"
       stroke="#2f4f4f"
       stroke-width="4"
       id="rect52" />
    <!-- Tree / Road Logo -->
    <circle
       cx="-40"
       cy="-45"
       r="16"
       fill="#228b22"
       id="circle52" />
    <path
       d="m -50,-25 q 10,-20 20,0"
       fill="none"
       stroke="#555555"
       stroke-width="4"
       id="path52" />
    <!-- Text -->
    <text
       x="15"
       y="-45"
       font-family="sans-serif"
       font-size="12px"
       fill="#333333"
       text-anchor="middle"
       id="text52">City of Redmond</text>
    <text
       x="15"
       y="-25"
       font-family="sans-serif"
       font-weight="bold"
       font-size="14px"
       fill="#333333"
       text-anchor="middle"
       id="text53">WASHINGTON</text>
  </g>
  <!-- LiquidPlanner Billboard -->
  <g
     transform="translate(560,420)"
     id="g58">
    <rect
       x="-35"
       y="0"
       width="8"
       height="60"
       fill="#555555"
       id="rect53" />
    <rect
       x="27"
       y="0"
       width="8"
       height="60"
       fill="#555555"
       id="rect54" />
    <rect
       x="-70"
       y="-70"
       width="140"
       height="70"
       fill="#1a1a1a"
       stroke="#444444"
       stroke-width="3"
       id="rect55" />
    <!-- Text -->
    <text
       x="0"
       y="-45"
       font-family="sans-serif"
       font-weight="bold"
       font-size="14px"
       fill="#ffffff"
       text-anchor="middle"
       id="text55">LiquidPlanner</text>
    <!-- Gantt Chart -->
    <rect
       x="-50"
       y="-30"
       width="40"
       height="6"
       fill="#1e90ff"
       id="rect56" />
    <rect
       x="-10"
       y="-20"
       width="50"
       height="6"
       fill="#32cd32"
       id="rect57" />
    <rect
       x="20"
       y="-10"
       width="40"
       height="6"
       fill="#ff4500"
       id="rect58" />
  </g>
  <!-- Diving School Sign (Slightly Above LiquidPlanner) -->
  <g
     transform="translate(560,270)"
     id="g61">
    <rect
       x="-5"
       y="0"
       width="10"
       height="80"
       fill="#777777"
       id="rect59" />
    <rect
       x="-60"
       y="-60"
       width="120"
       height="60"
       fill="#4682b4"
       stroke="#ffffff"
       stroke-width="3"
       id="rect60" />
    <text
       x="0"
       y="-42"
       font-family="sans-serif"
       font-weight="bold"
       font-size="11px"
       fill="#ffffff"
       text-anchor="middle"
       id="text60">DIVING SCHOOL.</text>
    <!-- Whale -->
    <path
       d="m -35,-10 q 15,-20 35,-15 20,5 35,0 l 5,15 Q 20,5 0,5 -20,5 -35,-10 Z"
       fill="#708090"
       id="path60" />
    <circle
       cx="-15"
       cy="-15"
       r="2"
       fill="#111111"
       id="circle60" />
    <!-- whale eye -->
    <text
       x="0"
       y="-10"
       font-family="cursive"
       font-weight="bold"
       font-size="12px"
       fill="#ffd700"
       text-anchor="middle"
       id="text61">Captains</text>
  </g>
  <!-- Small Stump -->
  <g
     transform="translate(720,420)"
     id="g62">
    <polygon
       points="-5,-35 15,-25 20,0 -25,0 -15,-30 "
       fill="#4a3c31"
       id="polygon61" />
    <ellipse
       cx="-2"
       cy="-30"
       rx="12"
       ry="5"
       fill="#d2b48c"
       id="ellipse61" />
    <path
       d="m -2,-33 v 6"
       stroke="#8b4513"
       stroke-width="1"
       id="path61" />
  </g>
  <!-- Bare Twisting Tree -->
  <g
     transform="translate(840,420)"
     id="g63">
    <path
       d="m 0,0 c -20,-40 30,-80 0,-130 -20,-30 -50,-40 -60,-70 m 60,70 c 40,-20 60,-50 50,-90 M 10,-70 c -40,-20 -60,-10 -80,-30 m 85,0 c 35,10 55,-20 75,-10"
       stroke="#3b2f2f"
       stroke-width="14"
       fill="none"
       stroke-linecap="round"
       id="path62" />
    <path
       d="m 0,0 c -20,-40 30,-80 0,-130 -20,-30 -50,-40 -60,-70 m 60,70 c 40,-20 60,-50 50,-90 M 10,-70 c -40,-20 -60,-10 -80,-30 m 85,0 c 35,10 55,-20 75,-10"
       stroke="#5c4033"
       stroke-width="8"
       fill="none"
       stroke-linecap="round"
       id="path63" />
  </g>
  <!-- SEGA Neon Gantry -->
  <g
     transform="translate(930,260)"
     id="g65">
    <!-- Truss Legs -->
    <rect
       x="-60"
       y="0"
       width="12"
       height="160"
       fill="#555555"
       id="rect63" />
    <rect
       x="48"
       y="0"
       width="12"
       height="160"
       fill="#555555"
       id="rect64" />
    <!-- Truss Crosses -->
    <path
       d="M -54,0 54,40 M -54,40 54,80 m -108,0 108,40 m -108,0 108,40"
       stroke="#777777"
       stroke-width="3"
       id="path64" />
    <path
       d="M 54,0 -54,40 M 54,40 -54,80 m 108,0 -108,40 m 108,0 -108,40"
       stroke="#777777"
       stroke-width="3"
       id="path65" />
    <!-- Overhead Sign Box -->
    <rect
       x="-80"
       y="-40"
       width="160"
       height="40"
       fill="#111111"
       stroke="#333333"
       stroke-width="4"
       id="rect65" />
    <!-- SEGA Neon Text -->
    <text
       x="0"
       y="-10"
       font-family="sans-serif"
       font-weight="900"
       font-size="32px"
       fill="#0000ff"
       stroke="#00ffff"
       stroke-width="2"
       text-anchor="middle"
       letter-spacing="4"
       id="text65">SEGA</text>
  </g>
  <!-- SCATTERED RED CARS (Extracted Animation Sequence) -->
  <!-- Smallest Scale (Farthest) -->
  <g
     transform="matrix(0.3,0,0,0.3,760,440)"
     id="g66">
    <use
       href="#ferrari"
       id="use65" />
  </g>
  <g
     transform="matrix(0.3,0,0,0.3,800,440)"
     id="g67">
    <use
       href="#ferrari"
       id="use66" />
  </g>
  <!-- Small-Medium Scale -->
  <g
     transform="matrix(0.6,0,0,0.6,780,480)"
     id="g68">
    <use
       href="#ferrari"
       id="use67" />
  </g>
  <!-- ========================================== -->
  <!-- BOTTOM SECTION                             -->
  <!-- ========================================== -->
  <!-- DANKE! Billboard -->
  <g
     transform="translate(100,620)"
     id="g72">
    <rect
       x="-35"
       y="0"
       width="8"
       height="60"
       fill="#555555"
       id="rect68" />
    <rect
       x="27"
       y="0"
       width="8"
       height="60"
       fill="#555555"
       id="rect69" />
    <rect
       x="-70"
       y="-80"
       width="140"
       height="80"
       fill="#ffffff"
       stroke="#999999"
       stroke-width="3"
       id="rect70" />
    <!-- Gold Head -->
    <path
       d="m -45,-30 h 20 v 20 h -20 z"
       fill="#daa520"
       id="path70" />
    <circle
       cx="-35"
       cy="-40"
       r="18"
       fill="#ffd700"
       id="circle70" />
    <!-- Speed Limit Sign -->
    <circle
       cx="25"
       cy="-45"
       r="20"
       fill="#ffffff"
       stroke="#e32636"
       stroke-width="5"
       id="circle71" />
    <text
       x="25"
       y="-40"
       font-family="sans-serif"
       font-weight="bold"
       font-size="14px"
       fill="#000000"
       text-anchor="middle"
       id="text71">100</text>
    <!-- Text -->
    <text
       x="15"
       y="-15"
       font-family="sans-serif"
       font-weight="900"
       font-size="20px"
       fill="#333333"
       text-anchor="middle"
       id="text72">DANKE!</text>
  </g>
  <!-- Low Fern -->
  <g
     transform="translate(240,620)"
     id="g76">
    <path
       d="M 0,0 Q -30,-40 -60,-10 -30,-20 0,0"
       fill="#228b22"
       id="path72" />
    <path
       d="M 0,0 Q -20,-60 -30,-40 -15,-30 0,0"
       fill="#006400"
       id="path73" />
    <path
       d="M 0,0 Q 0,-70 10,-50 5,-30 0,0"
       fill="#32cd32"
       id="path74" />
    <path
       d="M 0,0 Q 30,-50 40,-30 15,-20 0,0"
       fill="#228b22"
       id="path75" />
    <path
       d="M 0,0 Q 50,-30 60,-10 25,-10 0,0"
       fill="#006400"
       id="path76" />
  </g>
  <!-- RIM Sign -->
  <g
     transform="translate(360,620)"
     id="g80">
    <!-- Wooden Structure -->
    <rect
       x="-25"
       y="-30"
       width="8"
       height="30"
       fill="#8b4513"
       id="rect76" />
    <rect
       x="17"
       y="-30"
       width="8"
       height="30"
       fill="#8b4513"
       id="rect77" />
    <rect
       x="-35"
       y="-35"
       width="70"
       height="8"
       fill="#a0522d"
       id="rect78" />
    <!-- Blue Oval -->
    <ellipse
       cx="0"
       cy="-60"
       rx="45"
       ry="30"
       fill="#00008b"
       stroke="#ffffff"
       stroke-width="3"
       id="ellipse78" />
    <!-- Motorcyclist Graphic -->
    <path
       d="m -20,-65 h 30 l 10,15 H 5 L -5,-60 Z"
       fill="#cccccc"
       id="path78" />
    <circle
       cx="-10"
       cy="-50"
       r="8"
       fill="#ffffff"
       id="circle78" />
    <circle
       cx="15"
       cy="-50"
       r="8"
       fill="#ffffff"
       id="circle79" />
    <circle
       cx="0"
       cy="-75"
       r="7"
       fill="#cccccc"
       id="circle80" />
    <!-- helmet -->
    <!-- RIM Text -->
    <text
       x="0"
       y="-45"
       font-family="sans-serif"
       font-weight="900"
       font-size="16px"
       fill="#ffffff"
       text-anchor="middle"
       font-style="italic"
       id="text80">RIM</text>
  </g>
  <!-- Code inComplete Billboard -->
  <g
     transform="translate(500,620)"
     id="g86">
    <rect
       x="-35"
       y="0"
       width="8"
       height="60"
       fill="#555555"
       id="rect80" />
    <rect
       x="27"
       y="0"
       width="8"
       height="60"
       fill="#555555"
       id="rect81" />
    <rect
       x="-60"
       y="-70"
       width="120"
       height="70"
       fill="#111111"
       stroke="#ff8c00"
       stroke-width="3"
       id="rect82" />
    <!-- Puzzle / Face -->
    <path
       d="m -35,-40 h 20 v 15 h -20 z"
       fill="#ff8c00"
       id="path82" />
    <path
       d="m 15,-40 h 20 v 15 H 15 Z"
       fill="#ff8c00"
       id="path83" />
    <circle
       cx="-25"
       cy="-32"
       r="4"
       fill="#ffffff"
       id="circle83" />
    <circle
       cx="-25"
       cy="-32"
       r="1.5"
       fill="#000000"
       id="circle84" />
    <circle
       cx="25"
       cy="-32"
       r="4"
       fill="#ffffff"
       id="circle85" />
    <circle
       cx="25"
       cy="-32"
       r="1.5"
       fill="#000000"
       id="circle86" />
    <path
       d="m -10,-20 q 10,10 20,0"
       stroke="#ffffff"
       stroke-width="2"
       fill="none"
       id="path86" />
    <!-- Text -->
    <text
       x="0"
       y="-5"
       font-family="monospace"
       font-weight="bold"
       font-size="11px"
       fill="#ffffff"
       text-anchor="middle"
       id="text86">Code inComplete</text>
  </g>
  <!-- Wide Flowering Shrub -->
  <g
     transform="translate(660,600)"
     id="g93">
    <ellipse
       cx="0"
       cy="-20"
       rx="50"
       ry="30"
       fill="#228b22"
       id="ellipse86" />
    <ellipse
       cx="-20"
       cy="-35"
       rx="30"
       ry="20"
       fill="#006400"
       id="ellipse87" />
    <ellipse
       cx="20"
       cy="-35"
       rx="30"
       ry="20"
       fill="#2e8b57"
       id="ellipse88" />
    <!-- Purple Flowers -->
    <circle
       cx="-30"
       cy="-40"
       r="4"
       fill="#9370db"
       id="circle88" />
    <circle
       cx="-10"
       cy="-25"
       r="3"
       fill="#800080"
       id="circle89" />
    <circle
       cx="15"
       cy="-45"
       r="5"
       fill="#da70d6"
       id="circle90" />
    <circle
       cx="35"
       cy="-20"
       r="4"
       fill="#9932cc"
       id="circle91" />
    <circle
       cx="0"
       cy="-15"
       r="3"
       fill="#8a2be2"
       id="circle92" />
    <circle
       cx="-40"
       cy="-15"
       r="4"
       fill="#ba55d3"
       id="circle93" />
  </g>
  <!-- Ice Cream Parlor Sign -->
  <g
     transform="translate(800,620)"
     id="g98">
    <rect
       x="-6"
       y="0"
       width="12"
       height="60"
       fill="#888888"
       id="rect93" />
    <rect
       x="-55"
       y="-80"
       width="110"
       height="80"
       fill="#ffe4e1"
       stroke="#ff69b4"
       stroke-width="4"
       id="rect94" />
    <!-- Text -->
    <text
       x="0"
       y="-60"
       font-family="sans-serif"
       font-weight="900"
       font-size="14px"
       fill="#c71585"
       text-anchor="middle"
       id="text94">ICE CREAM</text>
    <text
       x="0"
       y="-45"
       font-family="sans-serif"
       font-weight="900"
       font-size="14px"
       fill="#c71585"
       text-anchor="middle"
       id="text95">PARLOR</text>
    <!-- Sundae Graphic -->
    <path
       d="M -20,-20 H 20 L 12,-5 H -12 Z"
       fill="#1e90ff"
       id="path95" />
    <!-- Blue bowl -->
    <circle
       cx="-10"
       cy="-25"
       r="10"
       fill="#ffffff"
       id="circle95" />
    <circle
       cx="10"
       cy="-25"
       r="10"
       fill="#ffb6c1"
       id="circle96" />
    <circle
       cx="0"
       cy="-35"
       r="12"
       fill="#ffffff"
       id="circle97" />
    <circle
       cx="0"
       cy="-45"
       r="5"
       fill="#ff0000"
       id="circle98" />
    <!-- Cherry -->
  </g>
  <!-- Flat Dark Rocks -->
  <g
     transform="translate(900,600)"
     id="g100">
    <ellipse
       cx="-25"
       cy="-10"
       rx="35"
       ry="15"
       fill="#3e2723"
       id="ellipse98" />
    <ellipse
       cx="20"
       cy="-5"
       rx="30"
       ry="12"
       fill="#4e342e"
       id="ellipse99" />
    <ellipse
       cx="0"
       cy="-15"
       rx="20"
       ry="10"
       fill="#5d4037"
       id="ellipse100" />
  </g>
  <!-- Prickly Pear Cactus -->
  <g
     transform="translate(1000,600)"
     id="g107">
    <!-- Main body -->
    <ellipse
       cx="0"
       cy="-30"
       rx="15"
       ry="30"
       fill="#2e8b57"
       id="ellipse101" />
    <!-- Arms -->
    <ellipse
       cx="-20"
       cy="-20"
       rx="15"
       ry="10"
       fill="#2e8b57"
       transform="rotate(-30,-20,-20)"
       id="ellipse102" />
    <ellipse
       cx="20"
       cy="-35"
       rx="15"
       ry="10"
       fill="#2e8b57"
       transform="rotate(30,20,-35)"
       id="ellipse103" />
    <!-- Prickles -->
    <circle
       cx="0"
       cy="-50"
       r="1.5"
       fill="#ffffff"
       id="circle103" />
    <circle
       cx="-5"
       cy="-35"
       r="1.5"
       fill="#ffffff"
       id="circle104" />
    <circle
       cx="5"
       cy="-20"
       r="1.5"
       fill="#ffffff"
       id="circle105" />
    <circle
       cx="-25"
       cy="-25"
       r="1.5"
       fill="#ffffff"
       id="circle106" />
    <circle
       cx="25"
       cy="-40"
       r="1.5"
       fill="#ffffff"
       id="circle107" />
  </g>
  <!-- Bulky Reddish-Brown Boulder -->
  <g
     transform="translate(1080,580)"
     id="g108">
    <path
       d="m -40,0 c -10,-50 20,-80 50,-80 30,0 50,40 40,80 z"
       fill="#8b4513"
       id="path107" />
    <path
       d="m -30,0 c -5,-40 20,-60 45,-60 20,0 30,30 25,60 z"
       fill="#a0522d"
       id="path108" />
  </g>
  <!-- ========================================== -->
  <!-- RIGHT COLUMN (VEHICLES - Rear Perspective) -->
  <!-- ========================================== -->
  <!-- Brown Semi-Truck Trailer (BIRIN) -->
  <g
     transform="translate(1120,100)"
     id="g115">
    <!-- Box -->
    <rect
       x="-45"
       y="-60"
       width="90"
       height="100"
       fill="#654321"
       id="rect108" />
    <rect
       x="-40"
       y="-55"
       width="80"
       height="90"
       fill="#8b5a2b"
       id="rect109" />
    <!-- Rear Doors Details -->
    <line
       x1="0"
       y1="-55"
       x2="0"
       y2="35"
       stroke="#333333"
       stroke-width="2"
       id="line109" />
    <rect
       x="-10"
       y="-10"
       width="4"
       height="20"
       fill="#cccccc"
       id="rect110" />
    <rect
       x="6"
       y="-10"
       width="4"
       height="20"
       fill="#cccccc"
       id="rect111" />
    <!-- Text -->
    <text
       x="0"
       y="-25"
       font-family="monospace"
       font-weight="bold"
       font-size="22px"
       fill="#ffffff"
       text-anchor="middle"
       letter-spacing="3"
       id="text111">BIRIN</text>
    <!-- Mudflaps / Wheels -->
    <rect
       x="-45"
       y="40"
       width="20"
       height="25"
       rx="2"
       fill="#111111"
       id="rect112" />
    <rect
       x="25"
       y="40"
       width="20"
       height="25"
       rx="2"
       fill="#111111"
       id="rect113" />
    <rect
       x="-40"
       y="35"
       width="80"
       height="10"
       fill="#222222"
       id="rect114" />
    <!-- Taillights -->
    <circle
       cx="-35"
       cy="40"
       r="3"
       fill="#ff0000"
       id="circle114" />
    <circle
       cx="35"
       cy="40"
       r="3"
       fill="#ff0000"
       id="circle115" />
  </g>
  <!-- Green Jeep -->
  <g
     transform="translate(1120,230)"
     id="g122">
    <!-- Tires (Large) -->
    <rect
       x="-35"
       y="5"
       width="16"
       height="22"
       rx="3"
       fill="#111111"
       id="rect115" />
    <rect
       x="19"
       y="5"
       width="16"
       height="22"
       rx="3"
       fill="#111111"
       id="rect116" />
    <!-- Lower Body -->
    <rect
       x="-40"
       y="-15"
       width="80"
       height="25"
       fill="#2e8b57"
       id="rect117" />
    <rect
       x="-30"
       y="-35"
       width="60"
       height="20"
       fill="#2e8b57"
       id="rect118" />
    <!-- Bumper -->
    <rect
       x="-45"
       y="5"
       width="90"
       height="5"
       fill="#111111"
       id="rect119" />
    <rect
       x="-40"
       y="2"
       width="10"
       height="4"
       fill="#ff0000"
       id="rect120" />
    <rect
       x="30"
       y="2"
       width="10"
       height="4"
       fill="#ff0000"
       id="rect121" />
    <!-- Spare Tire -->
    <circle
       cx="0"
       cy="-10"
       r="14"
       fill="#111111"
       id="circle121" />
    <circle
       cx="0"
       cy="-10"
       r="6"
       fill="#555555"
       id="circle122" />
    <!-- Window -->
    <rect
       x="-25"
       y="-30"
       width="50"
       height="12"
       fill="#2f4f4f"
       id="rect122" />
  </g>
  <!-- Pink Convertible -->
  <g
     transform="translate(1120,310)"
     id="g131">
    <!-- Tires -->
    <rect
       x="-32"
       y="10"
       width="14"
       height="16"
       rx="2"
       fill="#111111"
       id="rect123" />
    <rect
       x="18"
       y="10"
       width="14"
       height="16"
       rx="2"
       fill="#111111"
       id="rect124" />
    <!-- Body -->
    <path
       d="M -38,-5 H 38 L 34,15 H -34 Z"
       fill="#ff69b4"
       id="path124" />
    <rect
       x="-35"
       y="2"
       width="70"
       height="4"
       fill="#ff1493"
       id="rect125" />
    <!-- Taillights -->
    <rect
       x="-32"
       y="2"
       width="12"
       height="4"
       fill="#ff0000"
       id="rect126" />
    <rect
       x="20"
       y="2"
       width="12"
       height="4"
       fill="#ff0000"
       id="rect127" />
    <!-- Open Top / Interior -->
    <rect
       x="-28"
       y="-15"
       width="56"
       height="15"
       fill="#222222"
       id="rect128" />
    <!-- Seats -->
    <path
       d="m -22,-15 12,-13 5,13 z"
       fill="#ff1493"
       id="path128" />
    <path
       d="m 5,-15 5,-13 12,13 z"
       fill="#ff1493"
       id="path129" />
    <!-- Rear Deck -->
    <path
       d="m -32,-15 h 64 l 6,10 h -76 z"
       fill="#ffb6c1"
       id="path130" />
    <!-- Windshield -->
    <rect
       x="-28"
       y="-30"
       width="56"
       height="8"
       fill="#add8e6"
       opacity="0.8"
       id="rect130" />
    <rect
       x="-28"
       y="-30"
       width="56"
       height="8"
       fill="none"
       stroke="#cccccc"
       stroke-width="2"
       id="rect131" />
  </g>
  <!-- Blue Hatchback -->
  <g
     transform="translate(1120,390)"
     id="g137">
    <!-- Tires -->
    <rect
       x="-28"
       y="10"
       width="12"
       height="16"
       rx="2"
       fill="#111111"
       id="rect132" />
    <rect
       x="16"
       y="10"
       width="12"
       height="16"
       rx="2"
       fill="#111111"
       id="rect133" />
    <!-- Lower Body -->
    <path
       d="M -32,-5 H 32 L 28,15 H -28 Z"
       fill="#4682b4"
       id="path133" />
    <!-- Bumper/Lights -->
    <rect
       x="-30"
       y="5"
       width="60"
       height="4"
       fill="#222222"
       id="rect134" />
    <rect
       x="-28"
       y="2"
       width="8"
       height="5"
       fill="#ff0000"
       id="rect135" />
    <rect
       x="20"
       y="2"
       width="8"
       height="5"
       fill="#ff0000"
       id="rect136" />
    <!-- Hatch Cabin -->
    <path
       d="m -26,-28 h 52 l 6,23 h -64 z"
       fill="#4682b4"
       id="path136" />
    <!-- Rear Window -->
    <path
       d="m -20,-24 h 40 l 4,17 h -48 z"
       fill="#87ceeb"
       id="path137" />
  </g>
  <!-- Brown Car -->
  <g
     transform="translate(1120,460)"
     id="g142">
    <!-- Tires -->
    <rect
       x="-30"
       y="10"
       width="14"
       height="16"
       rx="2"
       fill="#111111"
       id="rect137" />
    <rect
       x="16"
       y="10"
       width="14"
       height="16"
       rx="2"
       fill="#111111"
       id="rect138" />
    <!-- Lower Body -->
    <path
       d="M -36,-5 H 36 L 32,15 H -32 Z"
       fill="#8b4513"
       id="path138" />
    <!-- Bumper/Lights -->
    <rect
       x="-32"
       y="4"
       width="64"
       height="4"
       fill="#333333"
       id="rect139" />
    <rect
       x="-30"
       y="2"
       width="10"
       height="4"
       fill="#ff0000"
       id="rect140" />
    <rect
       x="20"
       y="2"
       width="10"
       height="4"
       fill="#ff0000"
       id="rect141" />
    <!-- Cabin -->
    <path
       d="M -22,-20 H 22 L 32,-5 H -32 Z"
       fill="#8b4513"
       id="path141" />
    <!-- Rear Window -->
    <path
       d="m -18,-18 h 36 l 6,11 h -48 z"
       fill="#445566"
       id="path142" />
  </g>
  <!-- Largest Scale Red Sports Car (Closest to camera) -->
  <g
     transform="matrix(1.4,0,0,1.4,1120,560)"
     id="g143">
    <use
       href="#ferrari"
       id="use142" />
  </g>
  <!-- Bottom Row (Medium-Large Cars) -->
  <g
     transform="translate(950,720)"
     id="g144">
    <use
       href="#blue-ferrari"
       id="use143" />
  </g>
  <g
     transform="translate(1050,720)"
     id="g145">
    <use
       href="#ferrari"
       id="use144" />
  </g>
  <g
     transform="translate(1150,720)"
     id="g146">
    <use
       href="#ferrari"
       id="use145" />
  </g>
</svg>
