<?xml version="1.0" encoding="UTF-8" standalone="no"?>
<!-- Created with Inkscape (http://www.inkscape.org/) -->

<svg
   width="13.890625mm"
   height="25.929167mm"
   viewBox="0 0 13.890625 25.929167"
   version="1.1"
   id="svg1"
   inkscape:version="1.4.3 (0d15f75, 2025-12-25)"
   sodipodi:docname="stone.svg"
   xmlns:inkscape="http://www.inkscape.org/namespaces/inkscape"
   xmlns:sodipodi="http://sodipodi.sourceforge.net/DTD/sodipodi-0.dtd"
   xmlns="http://www.w3.org/2000/svg"
   xmlns:svg="http://www.w3.org/2000/svg">
  <sodipodi:namedview
     id="namedview1"
     pagecolor="#ffffff"
     bordercolor="#000000"
     borderopacity="0.25"
     inkscape:showpageshadow="2"
     inkscape:pageopacity="0.0"
     inkscape:pagecheckerboard="0"
     inkscape:deskcolor="#d1d1d1"
     inkscape:document-units="mm"
     inkscape:zoom="0.89887065"
     inkscape:cx="149.07595"
     inkscape:cy="471.14677"
     inkscape:window-width="1024"
     inkscape:window-height="1186"
     inkscape:window-x="2028"
     inkscape:window-y="92"
     inkscape:window-maximized="0"
     inkscape:current-layer="layer1" />
  <defs
     id="defs1" />
  <g
     inkscape:label="Layer 1"
     inkscape:groupmode="layer"
     id="layer1"
     transform="translate(-65.761953,-23.84544)">
    <g
       id="use74"
       transform="matrix(0.18520833,0,0,0.18520833,62.983828,21.993357)">
      <!-- Base shape -->
      <polygon
         points="90,90 75,40 50,10 30,30 15,80 20,150 80,150 "
         fill="#6c7078"
         id="polygon1" />
      <!-- Dark Shadow (Right) -->
      <polygon
         points="90,90 80,150 60,150 70,90 55,40 50,10 75,40 "
         fill="#44474d"
         id="polygon2" />
      <!-- Bright Highlight (Left) -->
      <polygon
         points="15,80 20,150 40,150 25,80 40,30 50,10 30,30 "
         fill="#9397a1"
         id="polygon3" />
      <!-- Inner blocky details -->
      <polygon
         points="55,60 50,80 35,80 40,60 "
         fill="#44474d"
         id="polygon4" />
      <polygon
         points="75,100 70,120 55,120 60,100 "
         fill="#9397a1"
         id="polygon5" />
      <polygon
         points="40,120 35,140 20,140 25,120 "
         fill="#585c63"
         id="polygon6" />
    </g>
  </g>
</svg>
