<svg xmlns="http://www.w3.org/2000/svg" viewBox="0 0 46 75" width="100%" height="100%">
  <rect width="46" height="75" fill="#4a6080" rx="3"/>
  <rect x="5" y="25" width="10" height="40" fill="#3a3a3a"/>
  <rect x="7" y="30" width="2" height="3" fill="#ffff00"/>
  <rect x="11" y="30" width="2" height="3" fill="#ffff00"/>
  <rect x="7" y="38" width="2" height="3" fill="#87ceeb"/>
  <rect x="11" y="38" width="2" height="3" fill="#87ceeb"/>
  <rect x="7" y="46" width="2" height="3" fill="#ffff00"/>
  <rect x="11" y="46" width="2" height="3" fill="#87ceeb"/>
  <rect x="18" y="15" width="12" height="50" fill="#4a4a4a"/>
  <rect x="20" y="20" width="3" height="4" fill="#ffff00"/>
  <rect x="25" y="20" width="3" height="4" fill="#87ceeb"/>
  <rect x="20" y="30" width="3" height="4" fill="#87ceeb"/>
  <rect x="25" y="30" width="3" height="4" fill="#ffff00"/>
  <rect x="20" y="40" width="3" height="4" fill="#ffff00"/>
  <rect x="25" y="40" width="3" height="4" fill="#87ceeb"/>
  <rect x="33" y="30" width="8" height="35" fill="#2a2a2a"/>
  <rect x="35" y="35" width="2" height="2" fill="#ffff00"/>
  <rect x="35" y="42" width="2" height="2" fill="#87ceeb"/>
  <rect x="35" y="49" width="2" height="2" fill="#ffff00"/>
  <rect x="0" y="65" width="46" height="10" fill="#4a4a4a"/>
</svg>
